<svg xmlns="http://www.w3.org/2000/svg" viewBox="0 0 512 512" role="img" aria-label="AI Interview Trainer">
  <defs>
    <linearGradient id="bg" x1="0%" y1="0%" x2="100%" y2="100%">
      <stop offset="0%" stop-color="#22d3ee"/>
      <stop offset="100%" stop-color="#2563eb"/>
    </linearGradient>
  </defs>
  <rect width="512" height="512" rx="112" fill="url(#bg)"/>
  <g fill="#ffffff" transform="translate(128 128)">
    <path d="M128 24c-8 0-14 6-14 14v28c0 8 6 14 14 14h28c8 0 14-6 14-14V38c0-8-6-14-14-14H128zm-70 70c-8 0-14 6-14 14v28c0 8 6 14 14 14h28c8 0 14-6 14-14v-28c0-8-6-14-14-14H58zm140 0c-8 0-14 6-14 14v28c0 8 6 14 14 14h28c8 0 14-6 14-14v-28c0-8-6-14-14-14h-28zm-70 70c-8 0-14 6-14 14v28c0 8 6 14 14 14h28c8 0 14-6 14-14v-28c0-8-6-14-14-14h-28z" opacity="0.95"/>
    <path d="M200 44l18 36 40 6-29 28 7 40-36-19-36 19 7-40-29-28 40-6z" transform="scale(1.15) translate(-18 -10)"/>
  </g>
</svg>
